<svg width="1024" height="1024" xmlns="http://www.w3.org/2000/svg" xmlns:xlink="http://www.w3.org/1999/xlink"><defs><linearGradient x1="0%" y1="100%" x2="100%" y2="100%" id="b"><stop stop-color="#FB923C" offset="0%"/><stop stop-color="#D946EF" offset="100%"/></linearGradient><linearGradient x1="50%" y1="-93.4%" x2="50%" y2="100%" id="d"><stop stop-color="#FB923C" offset="0%"/><stop stop-color="#D946EF" offset="100%"/></linearGradient><linearGradient x1="50%" y1="-48.2%" x2="50%" y2="100%" id="e"><stop stop-color="#D946EF" offset="0%"/><stop stop-color="#4F46E5" offset="100%"/></linearGradient><linearGradient x1="100%" y1="100%" x2="0%" y2="100%" id="f"><stop stop-color="#D946EF" offset="0%"/><stop stop-color="#8B5CF6" offset="100%"/></linearGradient><path d="m0 1024 342-341h341V341l341 342-341 341H0ZM1024 0 683 341H342v342L0 342 341 0h683Z" id="a"/></defs><g fill="none" fill-rule="evenodd"><mask id="c" fill="#fff"><use xlink:href="#a"/></mask><use fill="#8B5CF6" xlink:href="#a"/><path fill="url(#b)" mask="url(#c)" d="M0 0h1024v342H0z"/><path fill="url(#d)" mask="url(#c)" d="M0 341h342v342H0z"/><path fill="url(#e)" mask="url(#c)" d="M683 341h341v683H683z"/><path fill="url(#f)" mask="url(#c)" d="M0 683h683v341H0z"/></g></svg>